<svg id="Layer_5" enable-background="new 0 0 64 64" height="512" viewBox="0 0 64 64" width="512" xmlns="http://www.w3.org/2000/svg"><g><path d="m5.724 34c-.448-1.529-.711-3.134-.724-4.799v-.201c0-.216.011-.428.016-.643-.005-.119-.016-.237-.016-.357 0-.413.037-.82.093-1.223.071-.94.188-1.866.347-2.777h-1.44c-.551 0-1 .448-1 1v8c0 .552.449 1 1 1z"/><path d="m35 57h-6c-1.103 0-2 .897-2 2s.897 2 2 2h6c1.103 0 2-.897 2-2s-.897-2-2-2z"/><path d="m19 58c-7.168 0-13-5.832-13-13v-9h-2v9c0 8.271 6.729 15 15 15h6.142c-.084-.322-.142-.653-.142-1s.058-.678.142-1z"/><path d="m55.684 20.693c-2.269-6.978-7.309-12.636-13.756-15.549l-1.098 5.856h-17.66l-1.098-5.857c-6.447 2.913-11.487 8.572-13.756 15.549 4.55-4.622 13.351-7.692 23.684-7.692s19.134 3.07 23.684 7.693z"/><path d="m39.17 9 .865-4.614c-.855-.303-1.731-.56-2.625-.766l-.563 3.38h-9.694l-.563-3.38c-.894.206-1.769.463-2.625.765l.865 4.615z"/><path d="m35.153 5 .291-1.747c-1.127-.163-2.275-.253-3.444-.253s-2.317.09-3.444.253l.291 1.747z"/><path d="m40.742 47h-17.484c-4.177 0-8.027-1.408-11.113-3.748-.093.253-.145.503-.145.748 0 3.311 8.214 7 20 7s20-3.689 20-7c0-.245-.052-.495-.145-.748-3.086 2.34-6.936 3.748-11.113 3.748z"/><path d="m60 24h-1.44c.159.911.275 1.837.347 2.777.056.403.093.81.093 1.223 0 .12-.011.238-.016.357.005.215.016.427.016.643v.201c-.012 1.664-.275 3.27-.724 4.799h1.724c.551 0 1-.448 1-1v-8c0-.552-.449-1-1-1z"/><path d="m32 15c-13.137 0-23.933 5.298-24.919 12-.033.442-.054.886-.065 1.333.342 7.014 11.414 12.667 24.984 12.667s24.642-5.653 24.984-12.667c-.011-.447-.033-.892-.065-1.333-.986-6.702-11.782-12-24.919-12zm-21 13h-2c0-5.094 8.306-9.844 18.909-10.815l.183 1.992c-10.224.936-17.092 5.318-17.092 8.823zm21-9c-.661 0-1.313.016-1.956.044l-.089-1.998c.672-.03 1.354-.046 2.045-.046zm9.216 19.023-.433-1.953c7.935-1.758 12.217-5.469 12.217-8.07h2c0 4.168-5.539 8.196-13.784 10.023z"/><path d="m8.299 35.29c2.485 5.698 8.267 9.71 14.959 9.71h17.483c6.693 0 12.475-4.012 14.959-9.71-4.544 4.632-13.355 7.71-23.7 7.71s-19.156-3.078-23.701-7.71z"/></g></svg>