<?xml version="1.0" encoding="utf-8"?>
<!-- Generator: Adobe Illustrator 21.0.0, SVG Export Plug-In . SVG Version: 6.00 Build 0)  -->
<svg version="1.1" id="Layer_1" xmlns="http://www.w3.org/2000/svg" xmlns:xlink="http://www.w3.org/1999/xlink" x="0px" y="0px"
	 viewBox="0 0 512 512" style="enable-background:new 0 0 512 512;" xml:space="preserve">
<style type="text/css">
	.st0{fill:#141F38;}
</style>
<title>helmet_1_style_1</title>
<path class="st0" d="M256,230.4c14.1,0,25.6,11.4,25.6,25.6s-11.4,25.6-25.6,25.6c-7.1,0-13.8-2.9-18.6-8l-0.3-0.3
	c-0.3-0.3-0.6-0.6-0.8-1l0,0c-0.4-0.5-0.8-1-1.2-1.6l-0.2-0.2c-0.4-0.5-0.7-1-1-1.6l-0.2-0.3c-0.3-0.5-0.6-1.1-0.9-1.7l-0.1-0.3
	c-0.6-1.2-1-2.5-1.4-3.8l-0.1-0.3c-0.2-0.6-0.3-1.3-0.4-1.9l-0.1-0.4c-0.1-0.6-0.2-1.3-0.3-2c0-0.1,0-0.2,0-0.3
	c-0.1-0.7-0.1-1.4-0.1-2.1c0-0.5,0-1,0-1.5c0-0.2,0-0.3,0-0.5c0-0.4,0.1-0.7,0.1-1c0-0.2,0-0.3,0.1-0.5c0-0.3,0.1-0.7,0.2-1
	c0-0.1,0.1-0.3,0.1-0.4c0.2-0.9,0.4-1.9,0.7-2.8l0.1-0.4c0.1-0.3,0.2-0.6,0.3-0.9l0.2-0.5c0.1-0.3,0.3-0.6,0.4-0.9l0.2-0.4
	c0.2-0.4,0.4-0.9,0.6-1.3c0.4-0.7,0.8-1.4,1.3-2.1l0,0c0.3-0.4,0.6-0.9,0.9-1.3l0.2-0.3c0.3-0.4,0.7-0.8,1-1.2
	C241.8,233.5,248.7,230.4,256,230.4z M76.8,256c-0.1-47.5,18.8-93.1,52.5-126.7l-2.6-2.6c-13.9-13.9-12.3-37.2,3.7-48.5
	c33.1-23.5,72.2-37.1,112.7-39.5v-26C243.2,5.7,248.9,0,256,0s12.8,5.7,12.8,12.8c0,0,0,0,0,0v26l1.4,0.1
	c107.8,6.9,195.4,94,202.8,201.7c3.7,51.2-10.9,102-41.1,143.4H130.5l-1.2-1.3C95.6,349.1,76.7,303.5,76.8,256z M102.4,256
	c0,40.7,16.2,79.8,45,108.6l72.4-72.4c20,20,52.4,20,72.4,0c20-20,20-52.4,0-72.4c-20-20-52.4-20-72.4,0l-72.4-72.4
	C118.6,176.2,102.4,215.3,102.4,256z M410.1,409.6H89.6c-28.3,0-51.2,22.9-51.2,51.2S61.3,512,89.6,512h320
	c28.3,0.1,51.3-22.7,51.4-50.9S438.4,409.8,410.1,409.6L410.1,409.6z"/>
</svg>
