<svg id="Layer_1" data-name="Layer 1" xmlns="http://www.w3.org/2000/svg" viewBox="0 0 512 512"><defs><style>.cls-1{fill:#141f38;}</style></defs><title>alien_2_style_1</title><path class="cls-1" d="M256,0C135.82,0,38.4,99.22,38.4,221.61c0,76.22,84.4,186.44,148.07,258.74a92.17,92.17,0,0,0,139.05,0C389.2,408,473.6,297.83,473.6,221.61,473.6,99.22,376.18,0,256,0ZM127.15,282.7c-21.89-21.89-25-57.25-24.44-79.94a24.06,24.06,0,0,1,23.49-23.49c22.69-.59,58,2.54,79.94,24.44s25,57.25,24.44,79.94a24.06,24.06,0,0,1-23.49,23.49C184.4,307.73,149,304.59,127.15,282.7ZM281.6,422.4H230.4a12.8,12.8,0,0,1,0-25.6h51.2a12.8,12.8,0,0,1,0,25.6ZM385.1,282.7c-21.89,21.89-57.25,25-79.94,24.44a24.06,24.06,0,0,1-23.49-23.49c-.59-22.69,2.54-58,24.44-79.94s57.25-25,79.94-24.44a24.06,24.06,0,0,1,23.49,23.49C410.13,225.45,407,260.81,385.1,282.7Z"/></svg>