<svg height="471pt" viewBox="-15 0 471 471.35295" width="471pt" xmlns="http://www.w3.org/2000/svg"><path d="m.175781 203.304688c-.0625 44.472656 26.597657 84.628906 67.609375 101.832031l87.847656 36.984375 12.542969 12.542968v31.746094l-41.886719 20.941406h-46.113281c-22.078125.027344-39.972656 17.921876-40 40v16c0 4.417969 3.582031 8 8 8h344c4.417969 0 8-3.582031 8-8v-16c.011719-10.609374-4.199219-20.789062-11.703125-28.292968s-17.683594-11.714844-28.296875-11.707032h-46.109375l-41.890625-20.941406v-29.769531l12.800781-14.632813 87.585938-36.871093c41.011719-17.203125 67.675781-57.359375 67.613281-101.832031v-8c-.035156-25.082032-8.566406-49.414063-24.207031-69.023438l-46.191406-57.761719c-52.617188-65.789062-143.425782-87.019531-219.761719-51.382812l-12.238281 5.710937c-25.425782 11.902344-47.78125 29.480469-65.34375 51.378906l-48.050782 60.054688c-15.636718 19.609375-24.171874 43.941406-24.207031 69.023438zm308.425781 219.25c1.113282.539062 2.335938.8125 3.574219.796874h48c6.371094-.011718 12.480469 2.511719 16.984375 7.015626 4.503906 4.503906 7.027344 10.617187 7.015625 16.984374v8h-48v-8c0-4.417968-3.582031-8-8-8s-8 3.582032-8 8v8h-200v-8c0-4.417968-3.582031-8-8-8s-8 3.582032-8 8v8h-48v-8c0-13.253906 10.746094-24 24-24h48c1.238281.015626 2.460938-.257812 3.578125-.796874l48-24c2.722656-1.363282 4.4375-4.15625 4.421875-7.203126v-20.6875l2.351563 2.351563c9.457031 9.429687 22.257812 14.730469 35.609375 14.746094h1.648437c12.039063-.429688 23.527344-5.148438 32.390625-13.304688v16.894531c-.015625 3.046876 1.699219 5.839844 4.425781 7.203126zm-223.671874-338.328126c16.023437-19.984374 36.417968-36.023437 59.613281-46.882812l12.242187-5.710938c69.644532-32.496093 152.484375-13.109374 200.472656 46.921876l46.214844 57.757812c1.847656 2.304688 3.542969 4.703125 5.160156 7.160156-.160156 0-.296874-.085937-.457031-.085937-4.417969 0-8 3.578125-8 8v24c.003907 1.578125.472657 3.121093 1.34375 4.4375l4.378907 6.570312c1.394531 2.070313 1.730468 4.679688.910156 7.039063-.59375 1.574218-1.6875 2.910156-3.113282 3.808594-17.0625-28.554688-47.917968-45.996094-81.183593-45.890626h-4.671875c-26.457032-.089843-51.738282 10.941407-69.664063 30.402344v-3.105468c-.007812-5.125 2.03125-10.042969 5.664063-13.65625 6.636718-6.605469 10.359375-15.589844 10.335937-24.953126v-12.6875h-16v12.6875c.011719 5.128907-2.027343 10.042969-5.664062 13.65625-6.640625 6.609376-10.359375 15.601563-10.335938 24.96875v28.6875c-.011719 1.238282.261719 2.464844.800781 3.578126 15.976563 32.226562 48.894532 52.558593 84.863282 52.421874h4.671875c34.71875.117188 66.6875-18.867187 83.199219-49.40625l1.152343-.382812c7.09375-2.371094 12.675781-7.910156 15.101563-14.980469 2.421875-7.074219 1.414062-14.871093-2.730469-21.09375l-3.058594-4.535156v-15.585937c5.253907 11.960937 7.976563 24.875 8 37.9375v8c.050781 38.03125-22.75 72.371093-57.824219 87.082031l-89.277343 37.597656c-1.117188.476563-2.113281 1.199219-2.914063 2.113281l-26.207031 29.953125c-6.261719 7.144531-15.199219 11.378907-24.695313 11.695313-9.496093.316406-18.695312-3.316406-25.417968-10.03125l-32-32c-.730469-.734375-1.597656-1.320313-2.550782-1.722656l-89.28125-37.597657c-27.292968-11.492187-47.625-35.113281-54.914062-63.816406-7.292969-28.703125-.707031-59.164063 17.792969-82.289063zm306.191406 123.125c-13.925782 24.789063-40.179688 40.09375-68.609375 40h-4.671875c-28.429688.09375-54.683594-15.210937-68.605469-40 13.921875-24.785156 40.175781-40.089843 68.605469-40h4.671875c28.429687-.089843 54.683593 15.214844 68.609375 40zm0 0"/><path d="m208.175781 287.351562c3.234375 0 6.152344-1.949218 7.390625-4.9375 1.238282-2.988281.554688-6.429687-1.734375-8.71875l-8-8c-3.136719-3.03125-8.128906-2.988281-11.214843.097657-3.085938 3.085937-3.128907 8.078125-.097657 11.214843l8 8c1.5 1.5 3.535157 2.34375 5.65625 2.34375zm0 0"/><path d="m240.175781 287.351562c2.121094 0 4.15625-.84375 5.65625-2.34375l8-8c3.03125-3.136718 2.988281-8.128906-.097656-11.214843-3.085937-3.085938-8.074219-3.128907-11.214844-.097657l-8 8c-2.285156 2.289063-2.96875 5.730469-1.730469 8.71875 1.234376 2.988282 4.152344 4.9375 7.386719 4.9375zm0 0"/><path d="m185.777344 298.554688c-2.652344 3.53125-1.933594 8.546874 1.597656 11.199218 21.84375 16.246094 51.757812 16.246094 73.601562 0 3.535157-2.652344 4.25-7.667968 1.601563-11.199218-2.652344-3.535157-7.667969-4.253907-11.203125-1.601563-16.144531 12-38.25 12-54.398438 0-3.535156-2.652344-8.550781-1.933594-11.199218 1.601563zm0 0"/><path d="m128.175781 239.351562c17.675781 0 32-14.324218 32-32 0-17.671874-14.324219-32-32-32-17.671875 0-32 14.328126-32 32 0 17.675782 14.328125 32 32 32zm0-48c8.835938 0 16 7.164063 16 16 0 8.839844-7.164062 16-16 16-8.835937 0-16-7.160156-16-16 0-8.835937 7.164063-16 16-16zm0 0"/><path d="m26.410156 198.59375c2.398438 7.089844 7.996094 12.636719 15.109375 14.976562l1.144531.382813c16.515626 30.527344 48.46875 49.503906 83.175782 49.398437h4.671875c35.949219.113282 68.832031-20.214843 84.800781-52.421874.5625-1.109376.859375-2.332032.863281-3.578126v-28.6875c.027344-9.367187-3.695312-18.359374-10.335937-24.96875-3.632813-3.613281-5.671875-8.527343-5.664063-13.65625v-12.6875h-16v12.6875c-.023437 9.371094 3.695313 18.359376 10.335938 24.96875 3.636719 3.613282 5.675781 8.53125 5.664062 13.65625v3.089844c-17.925781-19.460937-43.203125-30.492187-69.664062-30.402344h-4.671875c-33.257813-.109374-64.113282 17.316407-81.191406 45.855469-1.421876-.894531-2.511719-2.234375-3.105469-3.804687-.820313-2.359375-.480469-4.96875.914062-7.042969l4.375-6.566406c.875-1.316407 1.34375-2.859375 1.34375-4.441407v-16c0-4.417968-3.582031-8-8-8s-8 3.582032-8 8v13.601563l-3.03125 4.558594c-4.167969 6.210937-5.183593 14.015625-2.734375 21.082031zm99.429688-31.242188h4.671875c28.429687-.089843 54.683593 15.214844 68.609375 40-13.925782 24.789063-40.179688 40.09375-68.609375 40h-4.671875c-28.429688.09375-54.683594-15.210937-68.605469-40 13.921875-24.785156 40.175781-40.089843 68.605469-40zm0 0"/><path d="m320.175781 175.351562c-17.671875 0-32 14.328126-32 32 0 17.675782 14.328125 32 32 32 17.675781 0 32-14.324218 32-32 0-17.671874-14.324219-32-32-32zm0 48c-8.835937 0-16-7.160156-16-16 0-8.835937 7.164063-16 16-16 8.835938 0 16 7.164063 16 16 0 8.839844-7.164062 16-16 16zm0 0"/><path d="m252.601562 408.191406-28.425781 14.21875-28.421875-14.21875c-3.957031-1.972656-8.761718-.367187-10.738281 3.585938-1.972656 3.953125-.371094 8.761718 3.585937 10.734375l32 16c2.25 1.125 4.898438 1.125 7.152344 0l32-16c3.953125-1.972657 5.558594-6.78125 3.582032-10.734375-1.972657-3.953125-6.78125-5.558594-10.734376-3.585938zm0 0"/><path d="m88.175781 135.351562c4.417969 0 8-3.582031 8-8v-8c0-4.417968-3.582031-8-8-8s-8 3.582032-8 8v8c0 4.417969 3.582031 8 8 8zm0 0"/><path d="m112.175781 127.351562c0 4.417969 3.582031 8 8 8s8-3.582031 8-8v-8c0-4.417968-3.582031-8-8-8s-8 3.582032-8 8zm0 0"/><path d="m104.175781 103.351562c4.417969 0 8-3.582031 8-8v-8c0-4.417968-3.582031-8-8-8s-8 3.582032-8 8v8c0 4.417969 3.582031 8 8 8zm0 0"/></svg>