<?xml version="1.0"?>
<svg xmlns="http://www.w3.org/2000/svg" viewBox="0 0 64 64" width="512" height="512"><g id="outline"><path d="M55,48H47V46h7a1,1,0,0,0,1-1V32h2v3a1,1,0,0,0,2,0V3a1,1,0,0,0-2,0V16H55V13a1,1,0,0,0-1-1H6a1,1,0,0,0-1,1V45a1,1,0,0,0,1,1H17v2H9A7,7,0,0,0,9,62H55a7,7,0,0,0,0-14Zm0-30h2V30H55ZM7,44V14H53V44Zm38,2v2H41V46Zm-6,0v2H25V46ZM23,46v2H19V46ZM55,60H9A5,5,0,0,1,9,50H55a5,5,0,0,1,0,10Z"/><path d="M21.555,56.168l-6-4A1.006,1.006,0,0,0,15,52H9a3,3,0,0,0,0,6H21a1,1,0,0,0,.555-1.832ZM9,56a1,1,0,1,1,1-1A1,1,0,0,1,9,56Zm2.816,0a2.809,2.809,0,0,0,0-2H14.7l3,2Z"/><path d="M55,52H49a1.006,1.006,0,0,0-.555.168l-6,4A1,1,0,0,0,43,58H55a3,3,0,0,0,0-6Zm-8.7,4,3-2h2.881a2.809,2.809,0,0,0,0,2ZM55,56a1,1,0,1,1,1-1A1,1,0,0,1,55,56Z"/><path d="M42.707,52.293a1,1,0,0,0-1.414,0L39,54.586V53a1,1,0,0,0-1-1H26a1,1,0,0,0-1,1v1.586l-2.293-2.293a1,1,0,0,0-1.414,1.414l4,4A1,1,0,0,0,27,57V54h2.184A2.966,2.966,0,0,0,29,55a3,3,0,0,0,6,0,2.966,2.966,0,0,0-.184-1H37v3a1,1,0,0,0,1.707.707l4-4A1,1,0,0,0,42.707,52.293ZM32,56a1,1,0,1,1,1-1A1,1,0,0,1,32,56Z"/><path d="M51,42V16H9V42ZM43,18h6v6H43Zm0,8h6v6H43Zm0,8h6v6H43ZM35,18h6v6H35Zm0,8h6v6H35Zm0,8h6v6H35ZM27,18h6v6H27Zm0,8h6v6H27Zm0,8h6v6H27ZM19,18h6v6H19Zm0,8h6v6H19Zm0,8h6v6H19Zm-2,6H11V34h6Zm0-8H11V26h6Zm0-8H11V18h6Z"/></g></svg>
