<svg height="512" viewBox="0 0 60 60" width="512" xmlns="http://www.w3.org/2000/svg"><g id="007---Alien-UI"><path id="Shape" d="m57 0h-54c-1.65685425 0-3 1.34314575-3 3v54c0 1.6568542 1.34314575 3 3 3h48c4.9705627 0 9-4.0294373 9-9v-48c0-1.65685425-1.3431458-3-3-3zm-54 2h19.67c-2.25 3.48-2.28 10-7.67 10h-8c-1.73929657-.0814459-3.46790289.3126763-5 1.14v-10.14c0-.55228475.44771525-1 1-1zm0 56c-.55228475 0-1-.4477153-1-1v-40c0-.9 0-3 5-3h8c8.6 0 7.23-12 11-12h31c.5522847 0 1 .44771525 1 1v42.34c-2.167241-2.6688687-5.665603-3.8698943-9.0151282-3.0949913s-5.9649601 3.3903379-6.7398631 6.7398631.4261226 6.8478872 3.0949913 9.0151282zm48 0c-3.0859829.001856-5.809116-2.0173931-6.7036632-4.9708791-.8945471-2.9534859.2505581-6.1443408 2.8189586-7.8550754 2.5684005-1.7107347 5.9540882-1.5377053 8.3347046.4259545 2.2778893 1.878925 3.1317682 4.9851824 2.1343693 7.7644511-.9973988 2.7792687-3.6315511 4.633773-6.5843693 4.6355489z"/><path id="Shape" d="m51 46c-1.7863053.0000454-3.4368988.9530579-4.3300318 2.500055-.8931329 1.5469971-.8931208 3.4529593.0000318 4.999945.1702629.3254784.5052613.5314125.8725499.5363839s.7077381-.1918202.886748-.5125711c.1790098-.3207508.1677615-.7138237-.0292979-1.0238128-.7258375-1.2609234-.4423062-2.8608993.6726209-3.7956214s2.7398311-.9347221 3.8547582 0 1.3984584 2.534698.6726209 3.7956214c-.1970594.3099891-.2083077.703062-.0292979 1.0238128.1790099.3207509.5194594.5175425.886748.5125711s.702287-.2109055.8725499-.5363839c.8931526-1.5469857.8931647-3.4529479.0000318-4.999945-.893133-1.5469971-2.5437265-2.5000096-4.3300318-2.500055z"/><circle id="Oval" cx="51" cy="55" r="1"/><path id="Shape" d="m39 54c-5.66 0-5.55.08-5.92-.22l-3.91-3.12c-.5304981-.4256129-1.1898737-.6583337-1.87-.66h-4.3c-.5522847 0-1 .4477153-1 1s.4477153 1 1 1h4.3c.47 0 .22-.1 4.53 3.34.5304981.4256129 1.1898737.6583337 1.87.66h5.3c.5522847 0 1-.4477153 1-1s-.4477153-1-1-1z"/><path id="Shape" d="m18.29 52.29c-1.49 1.5-1.59 1.71-2.12 1.71h-3.34c-.264767-.0036835-.5183662-.1072663-.71-.29l-2.83-2.83c-.56206943-.5627699-1.3246186-.8792998-2.12-.88h-2.17c-.55228475 0-1 .4477153-1 1s.44771525 1 1 1c2.32 0 2.5-.08 2.88.29l2.83 2.83c.5620694.5627699 1.3246186.8792998 2.12.88 5 0 4.22.37 6.88-2.29.3921221-.3921222.3921221-1.0278778 0-1.42-.3921222-.3921221-1.0278778-.3921221-1.42 0z"/><path id="Shape" d="m5 48h3c.55228475 0 1-.4477153 1-1s-.44771525-1-1-1h-3c-.55228475 0-1 .4477153-1 1s.44771525 1 1 1z"/><path id="Shape" d="m12 48h2c.9442719 0 1.8334369-.4445825 2.4-1.2l1.8-2.4c.1888544-.2518058.4852427-.4.8-.4h9c.5522847 0 1-.4477153 1-1s-.4477153-1-1-1h-9c-.9442719 0-1.8334369.4445825-2.4 1.2l-1.8 2.4c-.1888544.2518058-.4852427.4-.8.4h-2c-.5522847 0-1 .4477153-1 1s.4477153 1 1 1z"/><path id="Shape" d="m39 46c-6.16 0-6 .08-6.38-.21-.2078446-.1666477-.473593-.2434734-.7382977-.213436s-.5064822.1644547-.6717023.373436c-.1655394.2090933-.2407002.4756479-.2087773.74042.0319229.264772.1682844.5058239.3787773.66958.5326671.4122243 1.1864607.6371855 1.86.64h5.76c.5522847 0 1-.4477153 1-1s-.4477153-1-1-1z"/><path id="Shape" d="m27 47c0-.5522847-.4477153-1-1-1h-6c-.5522847 0-1 .4477153-1 1s.4477153 1 1 1h6c.5522847 0 1-.4477153 1-1z"/><path id="Shape" d="m39 42h-6c-.5522847 0-1 .4477153-1 1s.4477153 1 1 1h6c.5522847 0 1-.4477153 1-1s-.4477153-1-1-1z"/><path id="Shape" d="m10 42h-5c-.55228475 0-1 .4477153-1 1s.44771525 1 1 1h5c.5522847 0 1-.4477153 1-1s-.4477153-1-1-1z"/><path id="Shape" d="m39 50h-4c-.5522847 0-1 .4477153-1 1s.4477153 1 1 1h4c.5522847 0 1-.4477153 1-1s-.4477153-1-1-1z"/><path id="Shape" d="m40 32h-4c-.55 0-.62.21-2.46 2l-1.54-6.24c-.1041781-.4219534-.4689763-.7283022-.9025862-.7579703-.4336099-.029668-.8367347.2241387-.9974138.6279703l-1.78 4.37h-3.32c-.4827608-.0097357-.9035264.3268768-1 .8 0 .16.13.83-1-5-.0884327-.4452654-.4656991-.7750995-.9187863-.8032707-.4530871-.0281713-.8683056.2523892-1.0112137.6832707l-.81 2.43-1.26-6.31c.0248528-.5522847-.4027153-1.0201471-.955-1.045-.5522847-.0248528-1.0201472.4027153-1.045.955l-2.73 8.87-2.12-13.71h1.39c.5522847 0 1-.4477153 1-1s-.4477153-1-1-1h-2.54c-.5522847 0-1 .4477153-1 1 0 .1.12-.8-1.88 14.13h-3.12c-.55228475 0-1 .4477153-1 1s.44771525 1 1 1h4c.50525928.0042854.9343321-.369008 1-.87l1.09-8.19 1.91 12.22c-.0358985.5522847.3827153 1.0291015.935 1.065s1.0291015-.3827153 1.065-.935l2.83-9.22 1.17 6.13c.0884327.4452654.4656991.7750995.9187863.8032707.4530871.0281713.8683056-.2523892 1.0112137-.6832707l.81-2.43 1.26 6.31c0 .5522847.4477153 1 1 1s1-.4477153 1-1l.84-4.2h3.16c.4098038.0003967.7783727-.249279.93-.63l.85-2.13 1.25 5c.0853671.3515519.3539513.6295852.7023426.7270519.3483914.0974666.7222592-.0008331.9776574-.2570519l2.7-2.71h3.59c.5522847 0 1-.4477153 1-1s-.4477153-1-1-1z"/><path id="Shape" d="m5 6h13c.5522847 0 1-.44771525 1-1s-.4477153-1-1-1h-13c-.55228475 0-1 .44771525-1 1s.44771525 1 1 1z"/><path id="Shape" d="m5 10h6c.5522847 0 1-.44771525 1-1s-.4477153-1-1-1h-6c-.55228475 0-1 .44771525-1 1s.44771525 1 1 1z"/><path id="Shape" d="m33.29 27.87c0 .5522847.4477153 1 1 1h2c.5522847 0 1-.4477153 1-1s-.4477153-1-1-1h-2c-.5522847 0-1 .4477153-1 1z"/><path id="Shape" d="m17.54 18.87h2c.5522847 0 1-.4477153 1-1s-.4477153-1-1-1h-2c-.5522847 0-1 .4477153-1 1s.4477153 1 1 1z"/><path id="Shape" d="m23.53 18.8c.8212642-.1078671 1.5531-.5725829 2-1.27l.32-.47c.2927109-.469442.149442-1.0872891-.32-1.38s-1.0872891-.149442-1.38.32c-.33.5-.45.77-.88.88-.4232989.171631-.6765013.6082743-.6152064 1.0609134.0612948.452639.4215062.8062159.8752064.8590866z"/><path id="Shape" d="m27.2 14.18c.3380647.0016321.6540662-.1676544.84-.45l1.11-1.66c.2497204-.2971852.3048967-.7120361.1415367-1.0641622s-.5157391-.5779019-.9039114-.5791528-.7419992.2222491-.9076253.573315l-1.11 1.66c-.1858434.3050399-.1948712.6860448-.0236838.9995445.1711873.3134996.4965932.5118861.8536838.5204555z"/><path id="Shape" d="m43.08 9.87h.92v4.56l-4.51 2.71c-.3036995.1800643-.4899384.5069327-.49.86v5.78l-.71 1.43c-.2485281.4942949-.0492949 1.0964719.445 1.345s1.0964719.0492949 1.345-.445l.34-.69 3.58 2.15v5.43c.0000616.3530673.1863005.6799357.49.86l5 3c.3094011.1786328.6905989.1786328 1 0l5-3c.3113964-.1750051.5057988-.502821.51-.86v-6c-.0000616-.3530673-.1863005-.6799357-.49-.86l-4.51-2.71v-4.86l4.51-2.71c.3036995-.1800643.4899384-.5069327.49-.86v-6c-.0000616-.35306729-.1863005-.67993568-.49-.86l-5-3c-.3094011-.17863279-.6905989-.17863279-1 0l-4.57 2.73h-1.86c-.5522847 0-1 .44771525-1 1s.4477153 1 1 1zm-2.08 8.7 4-2.4 4 2.4v4.86l-4 2.4-4-2.4zm13 13.86-4 2.4-4-2.4v-4.86l4-2.4 4 2.4zm-4-25.26 4 2.4v4.86l-4 2.4-4-2.4v-4.86z"/><path id="Shape" d="m37.08 9.87h2c.5522847 0 1-.44771525 1-1s-.4477153-1-1-1h-2c-.5522847 0-1 .44771525-1 1s.4477153 1 1 1z"/><path id="Shape" d="m31.15 9.87h1.93c.5522847 0 1-.44771525 1-1s-.4477153-1-1-1h-1.93c-.5522847 0-1 .44771525-1 1s.4477153 1 1 1z"/></g></svg>