<svg id="Layer_5" enable-background="new 0 0 64 64" height="512" viewBox="0 0 64 64" width="512" xmlns="http://www.w3.org/2000/svg"><g><circle cx="47" cy="17" r="1"/><path d="m37.025 26.975c3.886 3.886 7.621 6.68 10.802 8.081 2.544 1.119 4.568 1.23 5.611.332-3.95-1.962-8.773-5.659-13.97-10.855-5.193-5.193-8.895-10.018-10.858-13.966-.896 1.043-.784 3.065.335 5.607 1.4 3.18 4.194 6.915 8.08 10.801z"/><path d="m58.205 30.861 2.349-3.915c.741-1.235.547-2.809-.471-3.828l-19.202-19.201c-1.019-1.018-2.592-1.213-3.828-.471l-3.915 2.349c.483 1.587 2.505 6.435 10.568 14.498 8.059 8.058 12.91 10.085 14.499 10.568zm-5.205-11.861c1.654 0 3 1.346 3 3s-1.346 3-3 3-3-1.346-3-3 1.346-3 3-3zm-3-2c0 1.654-1.346 3-3 3s-3-1.346-3-3 1.346-3 3-3 3 1.346 3 3zm-11-6c0-1.654 1.346-3 3-3s3 1.346 3 3-1.346 3-3 3-3-1.346-3-3z"/><path d="m60.518 30.893-1.297 2.163-.628-.061c-.227-.022-5.667-.657-16.299-11.289-10.633-10.63-11.268-16.071-11.29-16.298l-.06-.628 2.163-1.298c-1.747-.599-3.033-.656-3.569-.121-1.746 1.747.619 9.03 11.345 19.757 10.727 10.727 18.01 13.094 19.757 11.345.534-.535.476-1.821-.122-3.57z"/><path d="m61 14c0-6.065-4.935-11-11-11-2.005 0-3.93.545-5.635 1.573l15.062 15.062c1.028-1.706 1.573-3.63 1.573-5.635z"/><circle cx="42" cy="11" r="1"/><circle cx="53" cy="22" r="1"/><path d="m5.82 26h22.361v2h-22.361z" transform="matrix(.894 -.447 .447 .894 -10.28 10.453)"/><path d="m25.82 45h22.361v2h-22.361z" transform="matrix(.447 -.894 .894 .447 -20.691 58.522)"/><path d="m6 9h2v2h-2z"/><path d="m6 13h2v2h-2z"/><path d="m8 11h2v2h-2z"/><path d="m4 11h2v2h-2z"/><path d="m3 21h2v2h-2z"/><path d="m3 25h2v2h-2z"/><path d="m5 23h2v2h-2z"/><path d="m1 23h2v2h-2z"/><path d="m19 13h2v2h-2z"/><path d="m19 17h2v2h-2z"/><path d="m21 15h2v2h-2z"/><path d="m17 15h2v2h-2z"/><path d="m15 3h2v2h-2z"/><path d="m15 7h2v2h-2z"/><path d="m17 5h2v2h-2z"/><path d="m13 5h2v2h-2z"/><path d="m53 52h2v2h-2z"/><path d="m53 56h2v2h-2z"/><path d="m55 54h2v2h-2z"/><path d="m51 54h2v2h-2z"/><path d="m49 42h2v2h-2z"/><path d="m49 46h2v2h-2z"/><path d="m51 44h2v2h-2z"/><path d="m47 44h2v2h-2z"/><path d="m37 56h2v2h-2z"/><path d="m37 60h2v2h-2z"/><path d="m39 58h2v2h-2z"/><path d="m35 58h2v2h-2z"/><circle cx="29" cy="35" r="3"/><path d="m19.515 37c-2 0-3.879.779-5.293 2.192l-5.894 5.894c-.211.212-.328.493-.328.793 0 .618.503 1.121 1.121 1.121.3 0 .581-.117.793-.328l5.379-5.379 2-2 1.414 1.414-2 2-5.379 5.379-8 8c-.211.212-.328.493-.328.793 0 .618.503 1.121 1.121 1.121.3 0 .581-.117.793-.328l9.379-9.379 1.414 1.414-9.379 9.379c-.211.212-.328.493-.328.793 0 .618.503 1.121 1.121 1.121.3 0 .581-.117.793-.328l8-8 7.379-7.379 1.414 1.414-7.379 7.379c-.211.212-.328.493-.328.793 0 .618.503 1.121 1.121 1.121.3 0 .581-.117.793-.328l5.894-5.894c1.413-1.414 2.192-3.293 2.192-5.293 0-4.127-3.358-7.485-7.485-7.485z"/></g></svg>