<svg id="Layer_1" data-name="Layer 1" xmlns="http://www.w3.org/2000/svg" viewBox="0 0 512 512"><defs><style>.cls-1{fill:#141f38;}</style></defs><title>moon_flag_style_1</title><path class="cls-1" d="M499.2,486.4h-78A70.33,70.33,0,0,0,303,448.73a51.14,51.14,0,0,0-58.17,37.67H115.2v-128H390.78a31.63,31.63,0,0,0,31.63-31.62V160a32,32,0,0,0-32-32H121.6a32,32,0,0,0-32,32V486.4H12.8a12.8,12.8,0,0,0,0,25.6H499.2a12.8,12.8,0,0,0,0-25.6ZM396.8,326.47a6.33,6.33,0,0,1-6.33,6.33H115.2V307.2H396.8ZM268.8,153.6H390.4a6.41,6.41,0,0,1,6.4,6.4v19.2h-128Zm0,51.2h128v25.6h-128Zm0,51.2h128v25.6H115.2V256H268.8ZM0,70.4A19.2,19.2,0,1,1,19.2,89.6,19.2,19.2,0,0,1,0,70.4Zm435.2-32a38.4,38.4,0,1,1,38.4,38.4A38.4,38.4,0,0,1,435.2,38.4ZM89.6,19.2a19.2,19.2,0,1,1,19.2,19.2A19.2,19.2,0,0,1,89.6,19.2Z"/></svg>