<svg id="Layer_1" data-name="Layer 1" xmlns="http://www.w3.org/2000/svg" viewBox="0 0 511.9 512"><defs><style>.cls-1{fill:#141f38;}</style></defs><title>r2d2_style_2</title><path class="cls-1" d="M217.24,0Zm-7.43,56.93a19.4,19.4,0,0,1,16.79,9.6l12.58,21.6a19.11,19.11,0,0,1-7.09,26.23l-32.86,18.8a19.47,19.47,0,0,1-26.46-7l-12.58-21.6a19.11,19.11,0,0,1,7.09-26.23l32.86-18.8A19.42,19.42,0,0,1,209.81,56.93Zm4,38.42-6.18-10.61-22,12.57,6.18,10.61ZM217.24,0c53,0,104.55,27.26,133,76h0L361,94.65,363,98h0l76.35,131.08a63.62,63.62,0,0,1-19.2,84.58L426.33,344a31.67,31.67,0,0,1-15.19,33.78L397,385.93v62.26a18.33,18.33,0,0,1,14.6,11.89l9.69,25.6c4.77,12.61-4,26.33-16.86,26.33H312.8c-12.85,0-21.63-13.72-16.86-26.33l9.69-25.6a18.32,18.32,0,0,1,14.6-11.89V430.27L319,431a31.67,31.67,0,0,1-36.85-3.73l-23.74-21.05a64.69,64.69,0,0,1-28.78,6.9,63.42,63.42,0,0,1-14.44-1.72l-21.38,37.17a18.5,18.5,0,0,1,12.92,11.54l9.73,25.6c4.8,12.61-4,26.33-16.95,26.33H95.29c-12.91,0-21.74-13.72-16.95-26.33l9.73-25.6A18.28,18.28,0,0,1,105,448h1.9l52.47-91.46L97.34,250h0L84.56,228a152.25,152.25,0,0,1-10.91-23h0q-1.52-4-2.8-8.14l-.15-.48q-1.23-4-2.24-8l-.07-.28a149.93,149.93,0,0,1-4.22-42.56c0-.06,0-.12,0-.17q.19-4.22.61-8.41h0a151.68,151.68,0,0,1,75.9-116.57h0A153.72,153.72,0,0,1,217.23,0h0m0,25.6a128.75,128.75,0,0,0-63.82,17,125.75,125.75,0,0,0-59.53,77c-.07.25-.1.51-.17.77l18.06-10.34A19.27,19.27,0,0,1,138,117L150.74,139a18.91,18.91,0,0,1-7,26l-47.53,27.2a126.87,126.87,0,0,0,10.49,23L327.87,88.57c-22.8-38.85-65.15-63-110.63-63M89.69,152.21c0,.65,0,1.31,0,2,0,1.34,0,2.68.11,4,.12,2.6.36,5.18.65,7.76L125.22,146,119,135.42ZM136.44,448h28.18l98.32-170.95a37.85,37.85,0,0,1-21.39-12.26ZM280.82,233.6a12.4,12.4,0,1,0,1.24,9.41A12.31,12.31,0,0,0,280.82,233.6Zm-101.39,240h-69.1l-4.87,12.8h83.93l-4.87-12.8Zm214.79,12.8-4.84-12.8H327.88L323,486.4Zm-22.79-85.69-25.6,14.78V448h25.6Zm29.83-51.57-4.37-21.33-114,65.82,16.29,14.45a6.07,6.07,0,0,0,4,1.53,6,6,0,0,0,3-.81l92.11-53.18A6.06,6.06,0,0,0,401.25,349.13Zm15.95-107.2L340.86,110.87,119.66,237.45l54.44,93.46,61.77-107.67a38,38,0,1,1,67.41,35h0l-.53.92c-.14.23-.26.46-.4.69L229,387.41c.23,0,.44.06.67.06a39.34,39.34,0,0,0,19.51-5.2l153.8-88a38.22,38.22,0,0,0,18.11-23.41A37.68,37.68,0,0,0,417.2,241.94Z"/></svg>