<?xml version="1.0" encoding="iso-8859-1"?>
<!-- Generator: Adobe Illustrator 19.0.0, SVG Export Plug-In . SVG Version: 6.00 Build 0)  -->
<svg version="1.1" id="Capa_1" xmlns="http://www.w3.org/2000/svg" xmlns:xlink="http://www.w3.org/1999/xlink" x="0px" y="0px"
	 viewBox="0 0 512 512" style="enable-background:new 0 0 512 512;" xml:space="preserve">
<g>
	<g>
		<path d="M481,301h-30v-46.839L387.724,0H124.276L61,254.161V301H31v90h85.827l-22.562,91H61v30h90v-30h-25.827l22.562-91H241v91
			h-30v30h90v-30h-30v-91h93.264l22.562,91H361v30h90v-30h-33.264l-22.562-91H481V301z M147.724,30h216.553l52.531,211H95.192
			L147.724,30z M91,271h330v30H91V271z M451,361H61v-30h390V361z"/>
	</g>
</g>
<g>
	<g>
		<path d="M256,61c-41.355,0-75,33.645-75,75s33.645,75,75,75c41.355,0,75-33.645,75-75S297.355,61,256,61z M256,181
			c-24.813,0-45-20.187-45-45s20.187-45,45-45s45,20.187,45,45S280.813,181,256,181z"/>
	</g>
</g>
<g>
</g>
<g>
</g>
<g>
</g>
<g>
</g>
<g>
</g>
<g>
</g>
<g>
</g>
<g>
</g>
<g>
</g>
<g>
</g>
<g>
</g>
<g>
</g>
<g>
</g>
<g>
</g>
<g>
</g>
</svg>
