<svg id="Layer_5" enable-background="new 0 0 64 64" height="512" viewBox="0 0 64 64" width="512" xmlns="http://www.w3.org/2000/svg"><g><g><path d="m34 62v-24.07-.01c4.01-.3 7-1.49 7-2.92l7.58 2.02c1.26.34 2.42.91 3.42 1.67 2.46 1.84 4 4.77 4 7.99v3.32h-2c-1.1 0-2 .9-2 2v4c0 1.1.9 2 2 2h2v4h-8z" fill="#ccd1d9"/><path d="m23 35-7.58 2.02c-1.26.34-2.42.91-3.42 1.67-2.46 1.84-4 4.77-4 7.99v3.32h2c1.1 0 2 .9 2 2v4c0 1.1-.9 2-2 2h-2v4h8 14v-18-6.07-.01c-4.01-.3-7-1.49-7-2.92z" fill="#ccd1d9"/><path d="m34 37.93v24.07h-4v-18-6.07-.01c.64.05 1.31.08 2 .08s1.36-.03 2-.08z" fill="#aab2bd"/><path d="m41 31.24v3.76c0 1.43-2.99 2.62-7 2.92-.64.05-1.31.08-2 .08s-1.36-.03-2-.08c-4.01-.3-7-1.49-7-2.92v-3.76c2.57 1.74 5.66 2.76 9 2.76s6.43-1.02 9-2.76z" fill="#aab2bd"/><path d="m38 46h6v4h-6z" fill="#69d6f4"/><circle cx="23" cy="55" fill="#ff826e" r="3"/><path d="m12 52v4c0 1.1-.9 2-2 2h-2v-8h2c1.1 0 2 .9 2 2z" fill="#b4dd7f"/><path d="m56 50v8h-2c-1.1 0-2-.9-2-2v-4c0-1.1.9-2 2-2z" fill="#b4dd7f"/><path d="m23 31.24v3.76l-7.58 2.02c-1.26.34-2.42.91-3.42 1.67v-9.69c0-2.21 1.79-4 4-4h1.61c1.22 2.52 3.09 4.67 5.39 6.23z" fill="#ffeaa7"/><path d="m52 29v9.69c-1-.76-2.16-1.33-3.42-1.67l-7.58-2.02v-3.76-.01c2.3-1.56 4.17-3.71 5.39-6.23h1.61c2.21 0 4 1.79 4 4z" fill="#ffeaa7"/><path d="m17.61 25h-1.61-4c-1.1 0-2-.9-2-2v-6c0-2.21 1.79-4 4-4h2.8c-.52 1.57-.8 3.25-.8 5 0 1.03.1 2.03.28 3.01.27 1.4.72 2.74 1.33 3.99z" fill="#fcd770"/><path d="m54 17v6c0 1.1-.9 2-2 2h-4-1.61c.61-1.25 1.06-2.59 1.33-3.99.18-.98.28-1.98.28-3.01 0-1.75-.28-3.43-.8-5h2.8c2.21 0 4 1.79 4 4z" fill="#fcd770"/><path d="m21.76 11.72c-2.79 2.32-4.77 5.58-5.47 9.29h-.01c-.18-.98-.28-1.98-.28-3.01 0-1.75.28-3.43.8-5 1.5-4.57 4.99-8.22 9.46-9.93l2.18 5.33c-2.5.57-4.78 1.72-6.68 3.32z" fill="#ccd1d9"/><path d="m16.29 21.01c.7-3.71 2.68-6.97 5.47-9.29l.01.01c-1.12 1.82-1.77 3.97-1.77 6.27 0 3.32 1.34 6.32 3.51 8.49s5.17 3.51 8.49 3.51 6.32-1.34 8.49-3.51 3.51-5.17 3.51-8.49c0-2.32-.66-4.48-1.8-6.32 2.81 2.33 4.81 5.6 5.51 9.33h.01c-.27 1.4-.72 2.74-1.33 3.99-1.22 2.52-3.09 4.67-5.39 6.23v.01c-2.57 1.74-5.66 2.76-9 2.76s-6.43-1.02-9-2.76v-.01c-2.3-1.56-4.17-3.71-5.39-6.23-.61-1.25-1.06-2.59-1.33-3.99z" fill="#e6e9ed"/><path d="m47.2 13c.52 1.57.8 3.25.8 5 0 1.03-.1 2.03-.28 3.01h-.01c-.7-3.73-2.7-7-5.51-9.33-1.9-1.57-4.16-2.72-6.64-3.28l2.21-5.32c4.45 1.71 7.94 5.36 9.43 9.92z" fill="#ccd1d9"/><path d="m37.77 3.08-2.21 5.32c-1.15-.26-2.34-.4-3.56-.4s-2.41.14-3.56.4l-2.18-5.33c1.78-.69 3.72-1.07 5.74-1.07 2.04 0 3.98.38 5.77 1.08z" fill="#aab2bd"/><path d="m42.2 11.68c1.14 1.84 1.8 4 1.8 6.32 0 3.32-1.34 6.32-3.51 8.49s-5.17 3.51-8.49 3.51-6.32-1.34-8.49-3.51-3.51-5.17-3.51-8.49c0-2.3.65-4.45 1.77-6.27l-.01-.01c1.9-1.6 4.18-2.75 6.68-3.32 1.15-.26 2.34-.4 3.56-.4s2.41.14 3.56.4c2.48.56 4.74 1.71 6.64 3.28z" fill="#69d6f4"/></g><g><path d="m53 38.208v-9.208c0-1.13-.391-2.162-1.026-3h.026c1.654 0 3-1.346 3-3v-6c0-2.757-2.243-5-5-5h-2.114c-2.433-6.417-8.626-11-15.886-11s-13.453 4.583-15.886 11h-2.114c-2.757 0-5 2.243-5 5v6c0 1.654 1.346 3 3 3h.026c-.635.838-1.026 1.87-1.026 3v9.208c-2.469 2.044-4 5.119-4 8.475v16.317h50v-16.317c0-3.356-1.531-6.431-4-8.475zm-2-9.208v7.895c-.682-.349-1.403-.638-2.166-.841l-6.834-1.822v-2.514c2.061-1.507 3.779-3.454 4.992-5.717h1.008c1.654-.001 3 1.345 3 2.999zm-19 10c.332 0 .666-.007 1-.019v22.019h-2v-22.019c.334.012.668.019 1 .019zm0-2c-5.25 0-8-1.486-8-2v-2.008c2.386 1.278 5.109 2.008 8 2.008s5.614-.73 8-2.008v2.008c0 .514-2.75 2-8 2zm-14.691-15.965c.34-1.694.955-3.276 1.801-4.698-.071.55-.11 1.104-.11 1.663 0 7.168 5.832 13 13 13s13-5.832 13-13c0-.559-.04-1.114-.11-1.664.846 1.422 1.461 3.005 1.801 4.699-1.408 6.821-7.46 11.965-14.691 11.965s-13.283-5.144-14.691-11.965zm14.691-12.035c3.538 0 6.831 1.245 9.426 3.345 1.025 1.705 1.574 3.654 1.574 5.655 0 6.065-4.935 11-11 11s-11-4.935-11-11c0-1.998.546-3.948 1.568-5.65 2.596-2.104 5.891-3.35 9.432-3.35zm18 5c1.654 0 3 1.346 3 3v6c0 .551-.449 1-1 1h-4-.114c.708-1.869 1.114-3.886 1.114-6 0-1.38-.183-2.715-.495-4zm-3.2 1.669c-2.143-3.806-5.689-6.656-9.882-7.927l1.382-3.336c4.451 2.071 7.713 6.255 8.5 11.263zm-10.362-11.998-1.486 3.588c-.961-.169-1.948-.259-2.952-.259-1.003 0-1.988.09-2.948.259l-1.469-3.593c1.397-.432 2.88-.666 4.417-.666 1.545 0 3.035.235 4.438.671zm-10.717.725 1.367 3.344c-4.195 1.27-7.743 4.121-9.887 7.929.787-5.015 4.058-9.205 8.52-11.273zm-14.721 18.604v-6c0-1.654 1.346-3 3-3h1.495c-.312 1.285-.495 2.62-.495 4 0 2.114.406 4.131 1.114 6h-.114-4c-.551 0-1-.449-1-1zm2 6c0-1.654 1.346-3 3-3h1.008c1.213 2.264 2.931 4.211 4.992 5.717v2.514l-6.834 1.823c-.763.203-1.484.492-2.166.841zm-4 22h1c.551 0 1 .449 1 1v4c0 .551-.449 1-1 1h-1zm0 8h1c1.654 0 3-1.346 3-3v-4c0-1.654-1.346-3-3-3h-1v-2.317c0-4.071 2.748-7.647 6.681-8.696l6.705-1.788c.957 1.44 3.623 2.297 6.614 2.633v22.168h-12v-10.757c0-3.003-1.169-5.826-3.293-7.95l-1.414 1.414c1.746 1.746 2.707 4.067 2.707 6.536v10.757h-6zm40 2v-10.757c0-2.469.961-4.79 2.707-6.536l-1.414-1.414c-2.124 2.124-3.293 4.947-3.293 7.95v10.757h-12v-22.168c2.991-.336 5.656-1.194 6.614-2.633l6.705 1.788c3.933 1.049 6.681 4.625 6.681 8.696v2.317h-1c-1.654 0-3 1.346-3 3v4c0 1.654 1.346 3 3 3h1v2zm6-10v6h-1c-.551 0-1-.449-1-1v-4c0-.551.449-1 1-1z"/><path d="m37 51h8v-6h-8zm2-4h4v2h-4z"/><path d="m23 59c2.206 0 4-1.794 4-4s-1.794-4-4-4-4 1.794-4 4 1.794 4 4 4zm0-6c1.103 0 2 .897 2 2s-.897 2-2 2-2-.897-2-2 .897-2 2-2z"/><path d="m25 43h2v2h-2z"/><path d="m21 43h2v2h-2z"/><path d="m17 43h2v2h-2z"/><path d="m25 47h2v2h-2z"/><path d="m21 47h2v2h-2z"/><path d="m41 53h2v2h-2z"/><path d="m37 53h2v2h-2z"/><path d="m41 57h2v2h-2z"/><path d="m37 57h2v2h-2z"/><path d="m25.936 14.5-1.731-1c-.409.707-.719 1.464-.921 2.251l1.937.499c.156-.612.398-1.2.715-1.75z"/><path d="m23 18c0 4.962 4.038 9 9 9v-2c-3.86 0-7-3.14-7-7z"/></g></g></svg>